<?xml version="1.0" standalone="no"?>
<!DOCTYPE svg PUBLIC "-//W3C//DTD SVG 1.1//EN" 
"http://www.w3.org/Graphics/SVG/1.1/DTD/svg11.dtd">

<svg xmlns="http://www.w3.org/2000/svg" xmlns:xlink="http://www.w3.org/1999/xlink" version="1.1" width="800" height="600" xmlns:animator="hi">
    <g animator:label="Layer 01">
        <g animator:length="50">
            <path d="M 32.452462,57.569398 121.07265,28.861451 m 6.86494,33.076548 c -0.62408,-5.616773 7.48903,-15.602146 8.7372,-9.985373 1.24817,5.616772 -4.99268,11.85763 -8.7372,9.985373 z M 26.211604,118.72981 c 0,0 34.948806,-62.408584 34.948806,-87.372016 0,-24.9634325 -17.474403,95.485126 6.864944,86.747926 24.339346,-8.7372 20.594831,-88.620183 13.105802,-88.620183 -7.48903,0 -2.496344,87.996103 1.872257,87.996103 4.368601,0 -0.624086,-55.543641 16.850317,-51.175041 17.4744,4.368601 -0.624086,49.926861 14.97806,49.302781 15.60214,-0.62409 22.46709,-30.580206 16.85032,-37.44515 -5.61678,-6.864944 -9.36129,31.82838 1.24817,31.82838 10.60946,0 25.58752,-24.33935 25.58752,-32.452466 0,-8.113115 25.58751,28.083866 -12.48172,26.211606" stroke="black" fill="transparent"/>
        </g>
    </g>
    <g animator:label="Layer 02">
        <g animator:length="5"></g>
        <g animator:length="5">
            <path d="m 204.07606,99.383147 c 0,0 15.60215,-14.353973 15.60215,-26.211604 0,-11.85763 -11.23355,24.339347 2.49634,24.339347 13.72989,0 18.72257,-15.602145 15.60214,-23.715261 -3.12042,-8.113115 27.45978,24.339347 -4.99268,20.594832" stroke="black" fill="transparent"/>
            <path d="m 219.67821,56.321226 c -6.24086,-6.240858 -6.86495,4.368601 -0.62409,9.361288 6.24086,4.992686 10.60946,-11.857631 7.48903,-11.857631 -3.12043,0 -6.86494,2.496343 -6.86494,2.496343 z" stroke="black" fill="transparent"/>
        </g>
    </g>
    <g animator:label="Layer 03">
        <g animator:length="10"></g>
        <g animator:length="5">
            <path d="m 312.04291,70.051114 c 0,0 -11.23355,-6.864944 -23.09118,2.496344 -11.85763,9.361287 0.62409,32.452462 23.09118,13.729887 M 284.58313,63.18617 c 0,0 8.11312,-14.978059 19.97075,-13.105802 11.85763,1.872258 5.61677,45.558265 14.35397,45.558265" stroke="black" fill="transparent"/>
        </g>
    </g>
    <g animator:label="Layer 03">
        <g animator:length="15"></g>
        <g animator:length="35">
            <path d="M 36.186215,183.89301 192.40476,165.35861 M 35.303625,235.96586 c 0,0 23.829946,-38.83399 19.416993,-76.78538 -4.412953,-37.9514 -3.530362,69.72465 7.943316,69.72465 11.473678,0 28.2429,-12.35626 26.477719,-24.71253 -1.765182,-12.35627 -18.534403,-4.41296 -18.534403,3.53036 0,7.94332 4.412953,30.89067 15.00404,28.2429 10.591088,-2.64777 34.42103,-25.59513 29.12549,-37.06881 -5.29554,-11.47367 27.36031,39.71658 -20.299585,31.77326 0,0 24.099535,6.71281 42.340685,-10.66005 20.24662,-19.28286 34.38472,-64.35609 22.08843,-64.36014 -4.25663,-10e-4 -16.76922,66.19429 0.88259,72.37242" stroke="black" fill="transparent"/>
        </g>
    </g>
    
</svg>
 