<?xml version="1.0" standalone="no"?>
<!DOCTYPE svg PUBLIC "-//W3C//DTD SVG 1.1//EN" 
"http://www.w3.org/Graphics/SVG/1.1/DTD/svg11.dtd">

<svg xmlns="http://www.w3.org/2000/svg" xmlns:xlink="http://www.w3.org/1999/xlink" version="1.1" width="800" height="600" xmlns:animator="hi">

    <g animator:label="Layer 01">
        <g animator:length="5">
            <path d="M32.452462 57.569398C40.5789148392 63.3969844861 123.190724232 38.6345652195 121.07265 28.861451M127.93759 61.937999C119.155397183 50.5380438945 139.471139917 37.1902606932 136.67479 51.952626C145.223418469 64.403379719 131.5842648 53.8107346956 127.93759 61.937999C121.284230291 69.4034396828 129.313734855 52.0331403268 127.93759 61.937999M26.211604 118.72981C34.1373525715 112.632063729 66.6434334937 47.9584242346 61.16041 31.357794C52.5637166074 11.5028703542 46.1245882642 136.541029167 68.025354 118.10572C89.4360890984 118.930069989 80.345600174 35.1008060013 81.131156 29.485537C65.3034881231 35.0052397418 76.1766340334 127.174800531 83.003413 117.48164C96.0659795996 122.422789882 80.7622779108 71.8063905733 99.85373 66.306599C126.26459173 75.1629223337 108.497897598 119.988386797 114.83179 115.60938C121.12809401 118.646084521 133.139068979 75.9354414182 131.68211 78.16423C117.462990943 66.2002897509 122.118877379 99.994649249 132.93028 109.99261C148.550866339 118.646430706 165.03551878 93.237410704 158.5178 77.540144C152.972941479 77.7489605053 193.842952448 103.348417867 146.03608 103.75175" stroke="black" fill="transparent"/>
        </g>
        <g animator:length="5">
            <path d="m 204.07606,99.383147 c 0,0 15.60215,-14.353973 15.60215,-26.211604 0,-11.85763 -11.23355,24.339347 2.49634,24.339347 13.72989,0 18.72257,-15.602145 15.60214,-23.715261 -3.12042,-8.113115 27.45978,24.339347 -4.99268,20.594832" stroke="black" fill="transparent"/>
            <path d="m 215.31352,47.66208 c -2.26192,0 -4.09556,1.833646 -4.09556,4.095563 0,5.334862 8.19112,6.126649 8.19112,13.879032 0,-7.752428 8.19112,-8.544215 8.19112,-13.879077 0,-2.261917 -1.83364,-4.095563 -4.09556,-4.095563 -2.26192,0 -4.09556,1.833646 -4.09556,4.095585 0,-2.261894 -1.83364,-4.09554 -4.09556,-4.09554 z" stroke="black" fill="transparent"/>
        </g>
        <g animator:length="5">
            <path d="m 312.04291,70.051114 c 0,0 -11.23355,-6.864944 -23.09118,2.496344 -11.85763,9.361287 0.62409,32.452462 23.09118,13.729887 M 284.58313,63.18617 c 0,0 8.11312,-14.978059 19.97075,-13.105802 11.85763,1.872258 5.61677,45.558265 14.35397,45.558265" stroke="black" fill="transparent"/>
        </g>
        <g animator:length="5">
            <path d="M 36.186215,183.89301 192.40476,165.35861 M 35.303625,235.96586 c 0,0 23.829946,-38.83399 19.416993,-76.78538 -4.412953,-37.9514 -3.530362,69.72465 7.943316,69.72465 11.473678,0 28.2429,-12.35626 26.477719,-24.71253 -1.765182,-12.35627 -18.534403,-4.41296 -18.534403,3.53036 0,7.94332 4.412953,30.89067 15.00404,28.2429 10.591088,-2.64777 34.42103,-25.59513 29.12549,-37.06881 -5.29554,-11.47367 27.36031,39.71658 -20.299585,31.77326 0,0 24.099535,6.71281 42.340685,-10.66005 20.24662,-19.28286 34.38472,-64.35609 22.08843,-64.36014 -4.25663,-10e-4 -16.76922,66.19429 0.88259,72.37242" stroke="black" fill="transparent"/>
        </g>
        <g animator:type="keyframe">
            <path d="m 690.96398,324.354 c 8.80394,3.00164 19.80881,3.75205 29.98832,3.75205 43.74432,0 69.88101,-58.53223 69.88101,-153.08405 0,-42.77346 -7.97859,-84.796604 -20.9093,-108.809764 -15.68191,-29.26604 -30.26346,-37.5206 -61.35221,-37.5206 -9.07902,0 -25.31121,2.25124 -30.26339,2.25124 -26.13657,0 -36.041,-2.25124 -39.06734,-2.25124 -1.37557,0 -1.65071,1.50083 -1.65071,5.25288 l 0,18.00989 c 0,4.50247 0.27514,6.0033 1.65071,6.0033 l 15.68198,0 c 7.42825,0 10.17951,1.50083 10.72972,16.50906 0.27514,7.50412 0.55028,89.299094 0.55028,138.826244 l 0,86.29739 c 0,87.0477 -0.82535,204.11208 -1.10049,211.6162 -0.82536,20.26111 -2.75126,24.01318 -12.10536,24.01318 l -11.83028,0 c -1.37557,0 -1.65071,1.50083 -1.65071,5.25288 l 0,18.76032 c 0,3.0016 0.27514,5.2529 2.20098,5.2529 3.02634,0 13.75613,-2.2513 37.96685,-2.2513 25.86142,0 34.39023,2.2513 38.24192,2.2513 2.20099,0 2.47612,-2.2513 2.47612,-6.0033 l 0,-18.00992 c 0,-3.00164 -0.27513,-5.25288 -2.20098,-5.25288 l -17.60782,0 c -5.77754,0 -8.52881,-7.50414 -9.07902,-24.01318 -0.27514,-10.50576 -0.55028,-112.56185 -0.55028,-147.83118 l 0,-39.02142 m 0,-266.396294 c 5.50247,-5.25288 16.78247,-5.2529 21.45952,-5.2529 16.23219,0 49.79712,26.26453 49.79712,124.568414 0,26.2644 -1.10049,54.02971 -7.15317,75.79163 -7.15317,26.26439 -22.00979,51.02801 -38.7922,51.02801 -10.72979,0 -19.8088,-2.25124 -25.31127,-6.7537 l 0,-239.381454 M 516.17557,573.49078 c 37.96679,0 62.4527,-45.02476 79.23512,-105.80808 14.30636,-52.5288 20.63418,-109.56022 20.63418,-164.34025 0,-103.55675 -17.60785,-177.09729 -37.69174,-224.373214 -21.73461,-49.52714 -44.29465,-59.28255 -61.62732,-59.28255 -23.11022,0 -50.34734,15.00832 -74.55804,95.302334 -21.18437,69.78825 -25.58634,141.07752 -25.58634,186.85262 0,109.56005 20.90928,190.60469 40.44292,222.87238 21.73461,36.77016 45.67026,48.77676 59.15122,48.77676 m 2.20097,-28.5156 c -23.38533,0 -73.73268,-69.78856 -73.73268,-267.14673 0,-61.53373 9.07904,-137.32546 27.5122,-185.351804 20.63412,-53.2792 39.34244,-44.27429 43.46926,-44.27429 30.53851,0 73.45757,96.803304 73.45757,261.143404 0,66.78659 -10.17957,235.62942 -70.70635,235.62942 m -230.5737,28.5156 c 37.96679,0 62.4527,-45.02476 79.23512,-105.80808 14.30633,-52.5288 20.63414,-109.56022 20.63414,-164.34025 0,-103.55675 -17.60782,-177.09729 -37.6917,-224.373214 -21.73461,-49.52714 -44.29465,-59.28255 -61.62732,-59.28255 -23.11022,0 -50.34734,15.00832 -74.55805,95.302334 -21.18437,69.78825 -25.58634,141.07752 -25.58634,186.85262 0,109.56005 20.90929,190.60469 40.44293,222.87238 21.73461,36.77016 45.67025,48.77676 59.15122,48.77676 m 2.20097,-28.5156 c -23.38534,0 -73.73268,-69.78856 -73.73268,-267.14673 0,-61.53373 9.07904,-137.32546 27.5122,-185.351804 20.63412,-53.2792 39.34244,-44.27429 43.46926,-44.27429 30.53851,0 73.45757,96.803304 73.45757,261.143404 0,66.78659 -10.17958,235.62942 -70.70635,235.62942 M 69.790178,324.354 c 8.803892,3.00164 19.808788,3.75205 29.988287,3.75205 43.744345,0 69.880975,-58.53223 69.880975,-153.08405 0,-42.77346 -7.97855,-84.796604 -20.90927,-108.809764 -15.68193,-29.26604 -30.26344,-37.5206 -61.352189,-37.5206 -9.079019,0 -25.311227,2.25124 -30.263416,2.25124 -26.136559,0 -36.040978,-2.25124 -39.067317,-2.25124 -1.375608,0 -1.650731,1.50083 -1.650731,5.25288 l 0,18.00989 c 0,4.50247 0.275123,6.0033 1.650731,6.0033 l 15.681952,0 c 7.428285,0 10.179512,1.50083 10.729756,16.50906 0.275121,7.50412 0.550244,89.299094 0.550244,138.826244 l 0,86.29739 c 0,87.0477 -0.825366,204.11208 -1.100488,211.6162 -0.825365,20.26111 -2.751229,24.01318 -12.105366,24.01318 l -11.830244,0 c -1.375609,0 -1.650732,1.50083 -1.650732,5.25288 l 0,18.76032 c 0,3.0016 0.275124,5.2529 2.200976,5.2529 3.026338,0 13.756122,-2.2513 37.966829,-2.2513 25.861436,0 34.390251,2.2513 38.241951,2.2513 2.200973,0 2.476099,-2.2513 2.476099,-6.0033 l 0,-18.00992 c 0,-3.00164 -0.275126,-5.25288 -2.200979,-5.25288 l -17.607803,0 c -5.777553,0 -8.528779,-7.50414 -9.079025,-24.01318 -0.27512,-10.50576 -0.55024,-112.56185 -0.55024,-147.83118 l 0,-39.02142 m 0,-266.396294 c 5.502433,-5.25288 16.782443,-5.2529 21.459509,-5.2529 16.232183,0 49.797073,26.26453 49.797073,124.568414 0,26.2644 -1.10049,54.02971 -7.15317,75.79163 -7.15316,26.26439 -22.00977,51.02801 -38.792197,51.02801 -10.729746,0 -19.808782,-2.25124 -25.311215,-6.7537 l 0,-239.381454" stroke="black" fill="transparent"/>
        </g>
        <g animator:type="keyframe">
            <path style="fill: red" d="m 466.73852,410.39568 c 0,-3.68771 -3.68772,-11.06316 -8.11298,-14.01333 -3.54021,-2.36014 -8.11299,-3.24519 -12.53825,-3.24519 -7.37543,0 -15.93095,5.45783 -20.2087,10.76814 l -0.29502,0 -1.03256,-8.99804 c -0.14751,-1.18007 -0.44253,-1.7701 -1.18007,-1.7701 -0.59003,0 -1.47509,0.44252 -2.65516,1.03256 l -12.68575,7.08042 c -0.73755,0.29502 -1.32758,0.73754 -1.32758,1.47509 l 0,0.73754 c 0,0.44253 0.14751,0.88505 1.18007,1.32758 l 1.18007,0.59004 c 3.68771,1.7701 6.04786,4.27775 6.04786,8.70301 l 0,34.51706 c 0,2.50765 -1.03257,2.95018 -2.95018,2.95018 l -4.27775,0 c -1.18007,0 -1.47509,0.44252 -1.47509,1.32758 l 0,2.65515 c 0,0.88506 0.29502,1.32758 1.03256,1.32758 0.88505,0 5.60534,-0.44252 13.12828,-0.44252 7.81796,0 11.80071,0.44252 12.83327,0.44252 0.73754,0 1.03256,-0.44252 1.03256,-1.32758 l 0,-2.50765 c 0,-1.03256 -0.29502,-1.47508 -1.47509,-1.47508 l -3.68772,0 c -3.09768,0 -3.54021,-0.88506 -3.54021,-4.86779 l 0,-30.53432 c 0,-2.80267 0.44253,-6.78541 3.3927,-10.0306 4.42526,-4.72028 9.58808,-5.75284 11.94821,-5.75284 3.68772,0 7.22794,0 10.76815,2.65515 4.27775,3.09769 4.27775,7.37545 4.27775,13.2758 l 0,19.47116 c 0,3.83522 -0.14751,8.55551 -0.29502,12.39073 -0.1475,2.65516 -1.32758,3.39271 -2.95017,3.39271 l -4.27776,0 c -1.47508,0 -1.91761,0.29502 -1.91761,1.32758 l 0,2.36014 c 0,1.18007 0.29502,1.62259 1.18007,1.62259 1.03256,0 5.75285,-0.44252 13.27579,-0.44252 8.40799,0 12.98077,0.44252 14.01334,0.44252 0.88505,0 1.18007,-0.59003 1.18007,-1.62259 l 0,-2.36014 c 0,-0.88506 -0.29502,-1.32758 -1.6226,-1.32758 l -4.72028,0 c -1.91761,0 -3.2452,-0.73755 -3.2452,-3.09769 l 0,-38.05727 m -130.96936,8.2605 0,27.73165 c -0.14751,3.68771 -0.73755,5.16281 -2.95018,5.16281 l -7.67045,0 c -1.18007,0 -1.47509,0.29501 -1.47509,1.03256 l 0,3.24519 c 0,0.73754 0.29502,1.03256 1.18007,1.03256 1.18007,0 6.93292,-0.44252 16.816,-0.44252 9.58806,0 14.01334,0.44252 14.89839,0.44252 0.59003,0 0.88505,-0.59003 0.88505,-1.47509 l 0,-2.65515 c 0,-0.88506 -0.29502,-1.18007 -1.47509,-1.18007 l -6.63789,0 c -2.36014,0 -2.65516,-1.77011 -2.65516,-3.83523 -0.29502,-1.6226 -0.29502,-15.19342 -0.29502,-32.59944 l 0,-13.12829 17.99607,0 c 10.47312,0 12.39074,2.36015 12.39074,11.06316 l 0,22.12632 0,12.98077 c -0.14751,2.65516 -0.88505,3.39271 -2.36014,3.39271 l -5.90035,0 c -1.03256,0 -1.47509,0.29501 -1.47509,1.18007 l 0,2.95017 c 0,0.88505 0.44253,1.18007 1.18007,1.18007 1.47509,0 5.75285,-0.44252 14.45586,-0.44252 9.29305,0 12.98078,0.44252 14.16085,0.44252 0.88505,0 1.18007,-0.44252 1.18007,-1.32758 l 0,-2.65515 c 0,-0.88506 -0.29502,-1.32758 -1.32758,-1.32758 l -6.34288,0 c -2.21263,0 -2.80267,-1.18008 -2.80267,-3.83523 -0.14751,-1.6226 -0.14751,-6.93292 -0.14751,-12.68576 l 0,-16.07846 c 0,-13.27577 0,-22.56884 0.44253,-25.07649 0.14751,-1.03256 0.14751,-1.77011 -0.88505,-1.77011 -0.88505,0 -1.6226,0.29502 -2.95018,0.59004 -5.1628,1.18007 -10.62064,2.21263 -16.22596,2.21263 l -21.38878,0 0,-2.95017 c 0,-10.03059 0.29503,-22.12633 7.22793,-29.64927 3.09768,-3.54021 7.22794,-5.16281 11.21067,-5.16281 3.54021,0 5.60534,1.77011 7.52295,4.42527 3.09768,3.98273 5.60534,5.75284 8.99803,5.75284 3.24519,0 7.08043,-2.36015 6.93292,-7.22793 0,-5.31031 -6.63791,-10.32562 -14.75088,-10.32562 -7.37543,0 -18.73363,3.39271 -26.69909,12.24323 -6.34287,6.93291 -11.06316,15.78346 -11.06316,30.38681 l 0,2.50765 -8.55551,0 c -1.18007,0 -1.6226,0.14751 -1.77011,1.03256 l -0.59003,4.57278 c -0.14751,0.88505 0.29502,1.47508 1.03256,1.47508 l 9.88309,0 0,16.6685"/>
        </g>
    </g>
    <g animator:label="Wee">
        <g animator:length="5">
            <path style="fill: transparent; stroke: red; stroke-width: 5px" d="m 42.884354,264.94721 20.506318,76.53062 20.506317,-76.53062 m -18.903792,0 20.506318,76.53062 20.506315,-76.53062 m 30.3071,53.7415 26.19047,0 c 0,0 -1.36054,-13.60544 -13.60544,-13.60544 -12.2449,0 -13.22541,9.83298 -13.22541,19.37227 0,9.5393 4.09297,16.76555 11.72042,16.76555 7.62744,0 14.03061,-2.17218 14.03061,-8.10058 m -58.78412,-14.4318 26.19047,0 c 0,0 -1.36054,-13.60544 -13.60544,-13.60544 -12.2449,0 -13.22541,9.83298 -13.22541,19.37227 0,9.5393 4.09297,16.76555 11.72042,16.76555 7.62744,0 14.03061,-2.17218 14.03061,-8.10058"/>
        </g>
        <g animator:length="5">
            <path d="m 178.42808,340.23168 0,-5.37815 m 0.31636,-71.18141 0,63.58873" stroke="black" fill="transparent"/>
        </g>
        <g animator:length="5">
            <path d="m 190.42808,340.23168 0,-5.37815 m 0.31636,-71.18141 0,63.58873" stroke="black" fill="transparent"/>
        </g>
        <g animator:length="5">
            <path d="m 202.42808,340.23168 0,-5.37815 m 0.31636,-71.18141 0,63.58873" stroke="black" fill="transparent"/>
        </g>
        <g animator:type="keyframe">
        </g>
    </g>
    
</svg>
 